<svg width="24px" height="24px" viewBox="0 0 24 24" version="1.1" xmlns="http://www.w3.org/2000/svg" xmlns:xlink="http://www.w3.org/1999/xlink">
    <title>Credit Icon</title>
    <g id="Credit-Icon" stroke="none" stroke-width="1" fill="none" fill-rule="evenodd">
        <g id="Credit" transform="translate(0.299800, 0.700400)" fill="#E61414">
            <path d="M15.774,13.98 C15.459,13.793 15.047,13.855 14.82,14.142 C13.975,15.206 12.706,15.825 11.319,15.825 C9.108,15.825 7.278,14.209 6.918,12.1 L0.009,12.1 C0.399,18.006 5.315,22.697 11.319,22.697 C15.046,22.697 18.558,20.834 20.664,17.789 C20.907,17.437 20.781,16.948 20.413,16.73 L15.774,13.98 Z M6.912,10.597 C7.16,9.158 8.098,7.957 9.372,7.335 L7.284,0.754 C3.239,2.3 0.297,6.089 0,10.597 L6.912,10.597 Z M8.721,0.312 L10.818,6.921 C10.984,6.89 11.148,6.871 11.319,6.871 C12.515,6.871 13.631,7.344 14.461,8.164 L12.538,9.387 C12.015,9.72 12.155,10.519 12.76,10.653 L20.813,12.441 C20.864,12.453 20.915,12.458 20.964,12.458 C21.283,12.458 21.571,12.237 21.642,11.913 L23.432,3.861 C23.536,3.396 23.167,3.012 22.753,3.012 C22.628,3.012 22.501,3.047 22.38,3.124 L20.303,4.445 C18.163,1.652 14.896,0 11.319,0 C10.365,0 9.557,0.115 8.721,0.312 L8.721,0.312 Z M11.319,1.502 C14.402,1.502 17.231,2.908 19.111,5.359 L19.529,5.904 C19.767,6.214 20.202,6.291 20.531,6.082 L21.111,5.713 L21.543,5.438 L20.35,10.799 L14.989,9.608 L15.267,9.432 L16.06,8.927 C16.468,8.668 16.492,8.239 16.166,7.777 C15.959,7.46 14.635,5.667 11.911,5.397 L10.682,1.525 C10.682,1.525 10.962,1.502 11.319,1.502 L11.319,1.502 Z" id="Fill-1"></path>
        </g>
    </g>
</svg>