<svg xmlns="http://www.w3.org/2000/svg" xmlns:xlink="http://www.w3.org/1999/xlink" width="100px" height="17px" viewBox="0 0 101 17" version="1.1">
<g id="surface1">
<path style=" stroke:none;fill-rule:evenodd;fill:rgb(0%,28.235294%,42.745098%);fill-opacity:1;" d="M 50.164062 4.660156 C 47.683594 4.660156 45.566406 5.539062 45.566406 8.058594 C 45.566406 8.144531 45.601562 8.222656 45.660156 8.28125 C 45.71875 8.34375 45.800781 8.375 45.882812 8.375 L 47.664062 8.375 C 47.714844 8.375 47.769531 8.363281 47.816406 8.34375 C 47.867188 8.324219 47.910156 8.292969 47.949219 8.257812 C 47.988281 8.21875 48.015625 8.175781 48.039062 8.125 C 48.058594 8.074219 48.066406 8.023438 48.066406 7.96875 C 48.066406 7.226562 48.945312 6.820312 50.140625 6.820312 C 51.335938 6.820312 52.371094 7.339844 52.371094 8.554688 L 52.371094 9.613281 L 48.699219 9.613281 C 47.742188 9.605469 46.824219 9.972656 46.132812 10.632812 C 45.445312 11.292969 45.039062 12.195312 45.003906 13.148438 C 45.003906 13.320312 45.011719 13.496094 45.027344 13.667969 C 45.882812 17.96875 51.851562 16.730469 52.707031 16.390625 C 54.847656 15.535156 55.117188 14.140625 55.117188 13.710938 C 55.140625 12.609375 55.117188 8.824219 55.117188 8.351562 L 55.117188 8.039062 C 54.9375 5.472656 52.640625 4.660156 50.164062 4.660156 Z M 49.78125 14.523438 C 48.496094 14.523438 47.707031 14.027344 47.707031 13.058594 C 47.707031 12.089844 48.472656 11.640625 49.644531 11.640625 L 52.371094 11.640625 L 52.371094 12.203125 C 52.371094 13.441406 51.988281 14.523438 49.78125 14.523438 Z M 15.429688 0.0429688 C 15.308594 0.0429688 15.195312 0.09375 15.109375 0.175781 C 15.027344 0.261719 14.980469 0.375 14.980469 0.496094 L 14.980469 16.121094 C 14.980469 16.238281 15.027344 16.355469 15.109375 16.4375 C 15.195312 16.523438 15.308594 16.570312 15.429688 16.570312 L 17.277344 16.570312 C 17.394531 16.570312 17.511719 16.523438 17.59375 16.4375 C 17.679688 16.355469 17.726562 16.238281 17.726562 16.121094 L 17.726562 0.496094 C 17.726562 0.375 17.679688 0.261719 17.59375 0.175781 C 17.511719 0.09375 17.394531 0.0429688 17.277344 0.0429688 Z M 60.230469 16.121094 C 60.230469 16.238281 60.183594 16.355469 60.097656 16.4375 C 60.015625 16.523438 59.898438 16.570312 59.78125 16.570312 L 57.933594 16.570312 C 57.8125 16.570312 57.699219 16.523438 57.617188 16.4375 C 57.53125 16.355469 57.484375 16.238281 57.484375 16.121094 L 57.484375 0.628906 C 57.484375 0.382812 57.6875 0.0429688 57.933594 0.0429688 L 59.78125 0.0429688 C 59.898438 0.0429688 60.015625 0.09375 60.097656 0.175781 C 60.183594 0.261719 60.230469 0.375 60.230469 0.496094 Z M 12.589844 5.335938 C 12.589844 5.4375 12.550781 5.535156 12.480469 5.605469 C 12.40625 5.679688 12.308594 5.71875 12.207031 5.71875 L 9.976562 5.71875 C 9.945312 5.722656 9.914062 5.71875 9.886719 5.707031 C 9.855469 5.699219 9.828125 5.683594 9.804688 5.660156 C 9.78125 5.640625 9.761719 5.613281 9.75 5.585938 C 9.738281 5.554688 9.730469 5.523438 9.730469 5.492188 C 9.730469 3.398438 7.90625 2.792969 6.441406 2.792969 C 4.976562 2.792969 2.972656 3.601562 2.972656 5.898438 L 2.972656 11.054688 C 2.972656 12.992188 4.664062 14.117188 6.554688 14.117188 C 8.445312 14.117188 9.730469 13.304688 9.730469 11.191406 C 9.730469 11.089844 9.691406 10.992188 9.617188 10.917969 C 9.546875 10.847656 9.449219 10.808594 9.347656 10.808594 L 5.96875 10.808594 C 5.867188 10.808594 5.769531 10.765625 5.699219 10.695312 C 5.625 10.625 5.585938 10.527344 5.585938 10.425781 L 5.585938 8.488281 C 5.582031 8.4375 5.589844 8.386719 5.609375 8.335938 C 5.625 8.289062 5.65625 8.246094 5.691406 8.210938 C 5.726562 8.171875 5.769531 8.144531 5.820312 8.128906 C 5.867188 8.109375 5.917969 8.101562 5.96875 8.105469 L 12.207031 8.105469 C 12.308594 8.105469 12.40625 8.144531 12.480469 8.21875 C 12.550781 8.289062 12.589844 8.386719 12.589844 8.488281 L 12.589844 11.460938 C 12.589844 15.0625 9.617188 16.773438 6.554688 16.773438 C 3.039062 16.773438 0 14.816406 0 11.210938 L 0 6.054688 C 0 2.25 2.90625 0.113281 6.441406 0.113281 C 9.503906 0.113281 12.589844 1.621094 12.589844 5.222656 Z M 32.75 12.382812 C 32.75 15.332031 35.25 16.929688 38.066406 16.929688 C 40.882812 16.929688 43.292969 15.199219 43.292969 12.066406 L 43.292969 9.679688 C 43.292969 6.730469 41.085938 4.636719 37.976562 4.863281 C 37.058594 4.945312 36.1875 5.308594 35.476562 5.898438 L 35.476562 0.539062 C 35.476562 0.421875 35.429688 0.304688 35.34375 0.222656 C 35.261719 0.136719 35.144531 0.0898438 35.027344 0.0898438 L 33.179688 0.0898438 C 33.058594 0.0898438 32.945312 0.136719 32.859375 0.222656 C 32.777344 0.304688 32.730469 0.421875 32.730469 0.539062 L 32.730469 11.191406 L 32.75 11.191406 Z M 38.089844 14.589844 C 36.941406 14.589844 35.566406 13.757812 35.566406 12.359375 L 35.566406 9.5 C 35.566406 7.835938 36.828125 7.226562 38 7.226562 C 39.171875 7.226562 40.5 8.039062 40.5 9.433594 L 40.5 12.316406 C 40.5 13.980469 39.238281 14.589844 38.089844 14.589844 Z M 20.339844 9.613281 L 20.339844 12.246094 C 20.339844 15.21875 22.839844 16.796875 25.65625 16.796875 C 28.472656 16.796875 30.882812 15.085938 30.882812 11.933594 L 30.882812 9.570312 C 30.882812 6.597656 28.359375 4.75 25.566406 4.75 C 22.996094 4.75 20.339844 6.460938 20.339844 9.613281 Z M 25.65625 14.476562 C 24.507812 14.476562 23.132812 13.644531 23.132812 12.226562 L 23.132812 9.386719 C 23.132812 7.699219 24.394531 7.09375 25.566406 7.09375 C 26.738281 7.09375 28.066406 7.902344 28.066406 9.320312 L 28.066406 12.179688 C 28.066406 13.871094 26.804688 14.476562 25.65625 14.476562 Z M 25.65625 14.476562 "/>
<path style=" stroke:none;fill-rule:evenodd;fill:rgb(0%,61.568627%,87.843137%);fill-opacity:1;" d="M 88.40625 16.378906 C 88.320312 16.460938 88.210938 16.503906 88.09375 16.503906 L 85.730469 16.503906 C 85.613281 16.503906 85.503906 16.460938 85.417969 16.378906 C 85.335938 16.300781 85.285156 16.191406 85.277344 16.078125 L 85.277344 9.367188 C 85.277344 8.511719 84.941406 7.519531 83.410156 7.519531 C 81.878906 7.519531 81.496094 8.105469 81.539062 8.601562 L 81.539062 16.078125 C 81.535156 16.191406 81.484375 16.300781 81.402344 16.378906 C 81.316406 16.460938 81.207031 16.503906 81.089844 16.503906 L 78.703125 16.503906 C 78.644531 16.507812 78.582031 16.5 78.527344 16.480469 C 78.472656 16.457031 78.421875 16.429688 78.375 16.386719 C 78.332031 16.347656 78.296875 16.300781 78.273438 16.246094 C 78.246094 16.195312 78.230469 16.136719 78.230469 16.078125 L 78.230469 7.386719 C 78.207031 6.304688 81.023438 4.617188 83.230469 4.617188 C 86.449219 4.617188 88.546875 6.507812 88.546875 9.410156 L 88.546875 16.078125 C 88.539062 16.191406 88.488281 16.300781 88.40625 16.378906 Z M 101 11.144531 C 101 11.207031 100.988281 11.265625 100.964844 11.324219 C 100.941406 11.378906 100.90625 11.429688 100.863281 11.472656 C 100.816406 11.515625 100.765625 11.546875 100.707031 11.566406 C 100.652344 11.589844 100.589844 11.597656 100.527344 11.59375 L 93.613281 11.59375 L 93.613281 12.136719 C 93.613281 13.554688 94.875 14.296875 96.203125 14.296875 C 97.039062 14.296875 98.074219 13.847656 98.726562 13.285156 C 98.769531 13.246094 98.816406 13.214844 98.871094 13.195312 C 98.921875 13.175781 98.980469 13.167969 99.035156 13.167969 C 99.09375 13.171875 99.148438 13.183594 99.199219 13.207031 C 99.25 13.230469 99.296875 13.265625 99.335938 13.308594 L 100.507812 14.386719 C 100.59375 14.464844 100.648438 14.574219 100.65625 14.695312 C 100.667969 14.8125 100.628906 14.929688 100.550781 15.019531 C 99.425781 16.300781 97.734375 16.863281 95.910156 16.863281 C 92.984375 16.863281 90.257812 15.378906 90.257812 12.070312 L 90.257812 9.816406 C 90.257812 6.371094 92.914062 4.617188 95.84375 4.617188 C 98.773438 4.617188 101 6.148438 101 9.300781 Z M 95.796875 7.136719 C 94.761719 7.136719 93.613281 7.789062 93.613281 9.300781 L 93.613281 9.523438 L 97.824219 9.523438 L 97.824219 9.164062 C 97.824219 7.769531 96.835938 7.136719 95.796875 7.136719 Z M 76.449219 10.808594 L 76.449219 9.5 L 76.335938 9.636719 C 75.570312 10.558594 72.6875 13.824219 67.167969 16.550781 L 67.035156 16.617188 L 67.191406 16.660156 C 67.996094 16.890625 68.832031 17.003906 69.667969 17 C 71.347656 17.019531 72.984375 16.472656 74.308594 15.445312 C 75.707031 14.320312 76.449219 12.722656 76.449219 10.808594 Z M 67.914062 13.554688 L 68.046875 13.507812 L 67.933594 13.441406 C 67.699219 13.332031 67.484375 13.179688 67.304688 12.992188 C 67.035156 12.738281 66.820312 12.429688 66.675781 12.089844 C 66.53125 11.75 66.460938 11.378906 66.472656 11.011719 L 66.472656 6.011719 C 66.472656 4.683594 67.28125 3.128906 69.578125 3.128906 C 71.878906 3.128906 72.777344 4.59375 72.777344 5.945312 L 72.777344 10.761719 L 72.867188 10.695312 C 74.117188 9.761719 75.300781 8.738281 76.40625 7.632812 L 76.40625 6.078125 C 76.40625 4.234375 75.707031 2.65625 74.332031 1.554688 C 72.957031 0.449219 71.402344 0 69.558594 0 C 66.199219 0 62.800781 2.140625 62.800781 6.191406 L 62.800781 11.144531 C 62.761719 12.535156 63.253906 13.886719 64.171875 14.929688 L 64.242188 14.929688 C 65.496094 14.554688 66.722656 14.097656 67.914062 13.554688 Z M 67.914062 13.554688 "/>
</g>
</svg>