<svg width="22px" height="24px" viewBox="0 0 22 24" version="1.1" xmlns="http://www.w3.org/2000/svg" xmlns:xlink="http://www.w3.org/1999/xlink">
    <title>product/insurance</title>
    <g id="globalone" stroke="none" stroke-width="1" fill="none" fill-rule="evenodd">
        <g id="insurance" transform="translate(-1.000000, 0.000000)">
            <rect id="bounding" fill-opacity="0" fill="#FFFFFF" x="0" y="0" width="24" height="24"></rect>
            <path d="M12.00636,23.725 C11.8372974,23.7244204 11.6709955,23.68209 11.52223,23.60177 C9.86446,22.70393 1.60499028,17.69932 1.60499028,7.15414 L1.60499028,4.535 C1.60283067,4.07826176 1.96420213,3.70257155 2.42068,3.687 C5.69445386,3.55400617 8.84964477,2.42492869 11.46453,0.45068 C11.7685875,0.216439103 12.1922925,0.216439103 12.49635,0.45068 C15.1246428,2.43059773 18.295173,3.5601344 21.58328,3.688 C22.0367611,3.70965828 22.3936975,4.08293403 22.39505,4.53693 L22.39505,7.15414 C22.39505,17.83429 14.13554,22.73229 12.47973,23.60568 C12.3342181,23.6839432 12.1715836,23.725 12.00636,23.725 Z M3.10721,5.14819 L3.10721,7.15419 C3.12286729,13.4013961 6.53227192,19.1465518 12.00831,22.15335 C17.5126533,19.1781428 20.9287011,13.4110053 20.89279,7.15414 L20.89279,5.15014 C17.6853395,4.91145104 14.6039257,3.80157485 11.98093,1.94023 C9.36939987,3.79587394 6.30163003,4.90491084 3.10721,5.14819 Z M11.76588,3.87431 C9.57880115,5.21378914 7.14538662,6.10122729 4.60942556,6.48417 L4.60942556,7.15417 C4.59679368,12.4537045 7.29703307,17.3911203 11.76588,20.23974 L11.76588,3.87431 Z" id="fill" fill="#4E6066"></path>
        </g>
    </g>
</svg>