<svg width="24px" height="24px" viewBox="0 0 24 24" version="1.1" xmlns="http://www.w3.org/2000/svg" xmlns:xlink="http://www.w3.org/1999/xlink">
    <title>Save Icon</title>
    <g id="Save-Icon" stroke="none" stroke-width="1" fill="none" fill-rule="evenodd">
        <g id="Save" transform="translate(1.661390, 0.275001)" fill="#00486D" fill-rule="nonzero">
            <path d="M10.87461,23.4363591 L7.4098,23.4363591 C6.96984442,23.4091373 6.61924993,23.0581267 6.59255,22.6181391 L6.59255,10.0710591 C6.61924943,9.63106962 6.96984281,9.28005583 7.4098,9.25282912 L10.87461,9.25282912 C11.3147691,9.2799812 11.6656879,9.63090004 11.69284,10.0710591 L11.69284,22.6181391 C11.6656874,23.0582963 11.3147675,23.4092119 10.87461,23.4363591 Z M8.08873,21.9401791 L10.19661,21.9401791 L10.19661,10.7489991 L8.08873,10.7489991 L8.08873,21.9401791 Z M4.28204,23.4499991 L0.81725,23.4499991 C0.377296389,23.4227729 0.0267042845,23.0717647 0,22.6317791 L0,14.7203191 C0.0267042845,14.2803335 0.377296389,13.9293253 0.81725,13.9020991 L4.28204,13.9020991 C4.72219747,13.9292463 5.07311742,14.280162 5.10027,14.7203191 L5.10027,22.6317791 C5.07311742,23.0719363 4.72219747,23.4228519 4.28204,23.4499991 L4.28204,23.4499991 Z M1.49618,21.9538191 L3.60408,21.9538191 L3.60408,15.3982791 L1.49618,15.3982791 L1.49618,21.9538191 Z M20.48075,4.39350912 L18.66982,2.62367912 L16.17424,0.184649117 C15.9222927,-0.0615497057 15.5198673,-0.0615497057 15.26792,0.184649117 L12.7724,2.62364912 L10.96147,4.39350912 C10.7729793,4.57774983 10.7147867,4.85776448 10.8142626,5.10185038 C10.9137386,5.34593629 11.1510819,5.50550677 11.41466,5.50550912 L13.16854,5.50550912 L13.16854,7.13516912 C13.16854,7.15172912 13.16954,7.16828912 13.17054,7.18679912 L13.17054,22.6278591 C13.1701728,23.0805342 13.5360883,23.4481938 13.98876,23.4499791 L17.45356,23.4499791 C17.9062317,23.4481938 18.2721472,23.0805342 18.27178,22.6278591 L18.27178,7.18776912 C18.27278,7.16926912 18.27378,7.15176912 18.27378,7.13516912 L18.27378,5.50553912 L20.02766,5.50553912 C20.2912284,5.50549863 20.5285428,5.34590775 20.627994,5.1018222 C20.7274452,4.85773665 20.669239,4.57773772 20.48075,4.39350912 Z" id="Shape"></path>
        </g>
    </g>
</svg>