<?xml version="1.0" encoding="utf-8"?>
<!-- Generator: Adobe Illustrator 28.2.0, SVG Export Plug-In . SVG Version: 6.00 Build 0)  -->
<svg version="1.1" id="Layer_1" xmlns="http://www.w3.org/2000/svg" xmlns:xlink="http://www.w3.org/1999/xlink" x="0px" y="0px"
	 viewBox="0 0 24 24" style="enable-background:new 0 0 24 24;" xml:space="preserve">
<style type="text/css">
	.st0{fill:#E63934;}
	.st1{fill:#00486D;}
</style>
<path class="st0" d="M14.6,18l-1.1-1.1l5.6-5.6c0.3-0.3,0.8-0.3,1.1,0l2,2V3.8h-9.4l2.6,2.6l-1.1,1.1l-3.8-3.8
	c-0.2-0.2-0.3-0.6-0.2-0.9c0.1-0.3,0.4-0.5,0.8-0.5h11.8c0.4,0,0.8,0.4,0.8,0.8v11.8c0,0.3-0.2,0.6-0.5,0.8
	c-0.3,0.1-0.7,0.1-0.9-0.2l-2.6-2.6L14.6,18z"/>
<path class="st1" d="M10.6,17.8l5.5-5.5c0.1-0.1,0.2-0.3,0.2-0.5c0-0.2-0.1-0.3-0.2-0.5l-5.5-5.5c-0.1-0.1-0.3-0.2-0.5-0.2
	c-0.2,0-0.3,0.1-0.5,0.2l-5.5,5.5L1.4,8.6C1.2,8.4,0.9,8.4,0.7,8.5C0.4,8.6,0.3,8.8,0.3,9.1v11.9c0,0.4,0.3,0.7,0.8,0.7h11.9
	c0.3,0,0.5-0.2,0.6-0.4c0.1-0.2,0-0.5-0.1-0.7L10.6,17.8z"/>
</svg>
