<svg width="24px" height="24px" viewBox="0 0 24 24" version="1.1" xmlns="http://www.w3.org/2000/svg" xmlns:xlink="http://www.w3.org/1999/xlink">
    <title>ic/cards/basic</title>
    <g id="ic/cards/basic" stroke="none" stroke-width="1" fill="none" fill-rule="evenodd">
        <path d="M20,0.25 C20.3796958,0.25 20.693491,0.532153882 20.7431534,0.898229443 L20.75,1 L20.75,23 C20.75,23.3796958 20.4678461,23.693491 20.1017706,23.7431534 L20,23.75 L4,23.75 C3.62030423,23.75 3.30650904,23.4678461 3.25684662,23.1017706 L3.25,23 L3.25,1 C3.25,0.620304234 3.53215388,0.306509039 3.89822944,0.256846616 L4,0.25 L20,0.25 Z M19.25,1.75 L4.75,1.75 L4.75,22.25 L19.25,22.25 L19.25,1.75 Z M15,18.25 C15.4142136,18.25 15.75,18.5857864 15.75,19 C15.75,19.3796958 15.4678461,19.693491 15.1017706,19.7431534 L15,19.75 L9,19.75 C8.58578644,19.75 8.25,19.4142136 8.25,19 C8.25,18.6203042 8.53215388,18.306509 8.89822944,18.2568466 L9,18.25 L15,18.25 Z M15,15.75 C15.4142136,15.75 15.75,16.0857864 15.75,16.5 C15.75,16.8796958 15.4678461,17.193491 15.1017706,17.2431534 L15,17.25 L9,17.25 C8.58578644,17.25 8.25,16.9142136 8.25,16.5 C8.25,16.1203042 8.53215388,15.806509 8.89822944,15.7568466 L9,15.75 L15,15.75 Z M9.85775492,7.02151135 L9.85775492,8.28214229 C9.85775492,8.82635566 10.2896725,9.27208426 10.8400526,9.32909601 L10.9596902,9.3352573 L12.6468812,9.3352573 C13.0944495,9.3352573 13.4668193,9.66058366 13.5214586,10.0776489 L13.5283587,10.1836913 L13.5283587,11.5 L10.0123463,11.5 C8.63056764,11.5 7.5,10.4913365 7.5,9.25837435 C7.5,8.07190484 8.54738048,7.09329145 9.85775492,7.02151135 Z M13.9877715,7 C15.3694324,7 16.5,8.00866351 16.5,9.24139886 C16.5,10.2884282 15.6845497,11.1731538 14.5926005,11.4163732 L14.4268017,11.4479849 L14.4268017,10.2129817 C14.4268017,9.66845077 13.9948842,9.21637902 13.444504,9.15852292 L13.3248665,9.15226907 L11.632491,9.15226907 C11.1849227,9.15226907 10.8124525,8.82945488 10.7577977,8.41286529 L10.7508957,8.30689679 L10.7508957,7 L13.9877715,7 Z" id="fill" fill="#009DE0"></path>
    </g>
</svg>